<svg width="24" height="24" viewBox="0 0 24 24" fill="none" xmlns="http://www.w3.org/2000/svg">
<path d="M13.983 11.078h2.119c.02-.4.045-.777.045-1.216 0-.4-.024-.777-.045-1.216h-2.119v2.432zm-2.954-5.43h2.954v2.11h-2.954V5.648zm0 2.432h2.954V10.5h-2.954V8.08zm-2.93 0h2.93V10.5H8.099V8.08zm-2.93 0h2.93V10.5H5.169V8.08zm13.062 2.998c-.398-.675-1.07-1.216-1.964-1.456-.02 0-.045 0-.045-.02 0-.777-.045-1.534-.242-2.246-.068-.243-.137-.466-.227-.688C15.513 5.828 14.7 5.109 13.661 4.955c-.398-.045-.777-.066-1.196-.066h-1.92c-.777 0-1.534.066-2.246.243-1.216.302-2.202 1.07-2.954 2.202-.302.477-.52 1.025-.642 1.594-.089.4-.133.822-.133 1.243v.02c0 .02 0 .02-.02.02-.777.243-1.394.732-1.795 1.382-.243.4-.398.844-.398 1.331 0 .087 0 .157.02.243l11.17.045c.398-.045.756-.177 1.07-.354.52-.286.935-.732 1.216-1.26.177-.334.266-.712.266-1.091.045-.4-.024-.777-.177-1.116z" fill="#0db7ed"/>
<path d="M21.901 10.32c-.68-.68-1.643-1.025-2.62-1.025-.243 0-.466.02-.71.066-.02-1.07-.243-2.09-.644-3.044-.089-.221-.199-.43-.33-.632-.397-.6-.888-1.07-1.48-1.414-.6-.334-1.265-.52-1.964-.52-.243 0-.466.02-.71.066-.02.398-.089.777-.199 1.156-.177.622-.466 1.196-.844 1.691-.243.309-.52.578-.822.822-.68.554-1.48.888-2.335.954-.045.02-.089.045-.133.066-.6.309-1.07.777-1.371 1.371-.199.398-.309.844-.309 1.31 0 .133.02.266.045.398l.955-.02c-.02-.133-.045-.266-.045-.398 0-.377.089-.732.243-1.05.221-.455.578-.822 1.025-1.05.02-.02.045-.02.066-.045.888-.133 1.7-.532 2.379-1.156.309-.309.578-.644.777-1.025.398-.755.622-1.59.644-2.446.199-.02.398-.045.622-.045.577 0 1.132.133 1.614.398.488.266.888.644 1.196 1.116.111.177.199.354.266.554.354.844.533 1.756.533 2.668 0 .177-.02.354-.045.533.199-.02.398-.045.622-.045.844 0 1.643.309 2.246.888.622.578.977 1.371.977 2.246 0 .888-.354 1.68-.977 2.268-.6.578-1.4.888-2.246.888H9.477c-.888 0-1.68-.309-2.268-.888-.578-.588-.888-1.38-.888-2.268 0-.355.066-.71.199-1.05-.354.177-.666.398-.933.666-.378.399-.644.888-.777 1.414-.089.355-.133.732-.133 1.132 0 1.265.488 2.446 1.371 3.333.888.888 2.068 1.371 3.333 1.371h8.599c1.265 0 2.446-.488 3.333-1.371.888-.888 1.371-2.068 1.371-3.333 0-1.265-.488-2.446-1.371-3.333z" fill="#0db7ed"/>
</svg>